<?xml version="1.0" standalone="no"?>
<!DOCTYPE svg PUBLIC "-//W3C//DTD SVG 20010904//EN"
 "http://www.w3.org/TR/2001/REC-SVG-20010904/DTD/svg10.dtd">
<svg version="1.0" xmlns="http://www.w3.org/2000/svg"
 width="3074.000000pt" height="3074.000000pt" viewBox="0 0 3074.000000 3074.000000"
 preserveAspectRatio="xMidYMid meet">
<metadata>
Created by potrace 1.14, written by Peter Selinger 2001-2017
</metadata>
<g transform="translate(0.000000,3074.000000) scale(0.100000,-0.100000)"
fill="#000000" stroke="none">
<path d="M19268 28215 c-2 -1 -43 -5 -93 -8 -303 -20 -580 -139 -781 -335 -81
-79 -108 -110 -153 -175 -36 -53 -46 -82 -61 -172 -5 -33 -12 -69 -14 -80 -2
-11 -11 -58 -20 -105 -9 -47 -18 -94 -20 -105 -2 -11 -7 -40 -11 -65 -9 -54
-12 -71 -25 -135 -5 -27 -12 -66 -15 -85 -3 -19 -12 -69 -20 -110 -8 -41 -17
-93 -20 -115 -4 -22 -8 -47 -10 -55 -2 -8 -7 -31 -10 -50 -3 -19 -10 -57 -15
-85 -17 -85 -39 -208 -45 -245 -3 -19 -8 -42 -10 -50 -3 -8 -7 -32 -9 -54 -3
-21 -8 -46 -10 -55 -3 -9 -7 -32 -10 -51 -7 -44 -14 -81 -26 -145 -5 -27 -12
-67 -16 -89 -3 -21 -8 -48 -10 -60 -3 -11 -9 -43 -14 -71 -5 -27 -16 -88 -25
-135 -8 -47 -18 -101 -21 -120 -3 -19 -7 -36 -7 -36 -1 -1 -24 -5 -52 -8 -66
-9 -150 -33 -200 -58 -47 -25 -125 -100 -125 -123 0 -8 -6 -15 -12 -15 -65 -2
-3323 26 -3370 29 -14 1 -18 10 -18 35 0 60 -31 136 -66 162 -41 32 104 31
-2040 10 l-251 -2 -40 -29 c-53 -39 -79 -81 -92 -149 -6 -32 -10 -60 -9 -64 1
-4 -2 -32 -6 -62 -4 -30 -9 -73 -12 -95 -3 -22 -7 -56 -9 -75 -3 -19 -7 -55
-10 -80 -8 -72 -21 -184 -30 -257 -2 -21 -7 -63 -10 -93 -3 -30 -8 -66 -10
-80 -2 -14 -7 -52 -10 -85 -12 -111 -14 -130 -21 -175 -3 -25 -7 -56 -9 -70
-1 -14 -5 -56 -9 -93 -4 -37 -9 -76 -11 -85 -1 -9 -6 -46 -10 -82 -3 -36 -8
-76 -10 -90 -2 -14 -6 -50 -10 -80 -3 -30 -8 -66 -10 -80 -2 -14 -7 -53 -10
-87 -3 -34 -7 -70 -9 -80 -4 -21 -19 -156 -21 -193 -2 -48 47 -119 83 -120 11
0 12 -15 7 -72 -4 -40 -8 -80 -10 -88 -2 -8 -6 -44 -10 -80 -3 -36 -8 -76 -10
-90 -2 -14 -6 -50 -10 -80 -3 -30 -8 -71 -10 -90 -2 -19 -7 -60 -10 -90 -4
-30 -8 -66 -10 -80 -2 -14 -6 -54 -10 -90 -4 -36 -9 -78 -11 -95 -5 -30 -8
-57 -19 -170 -3 -33 -8 -71 -10 -85 -2 -14 -7 -50 -10 -80 -4 -30 -8 -66 -10
-80 -2 -14 -6 -54 -10 -90 -4 -36 -8 -76 -10 -90 -2 -14 -6 -50 -10 -80 -7
-66 -14 -123 -20 -170 -2 -19 -7 -60 -10 -90 -3 -30 -10 -89 -15 -130 -5 -41
-12 -102 -15 -135 -3 -33 -8 -71 -10 -85 -3 -14 -7 -52 -10 -85 -5 -56 -11
-104 -20 -165 -2 -14 -6 -54 -10 -90 -4 -36 -8 -76 -10 -90 -2 -14 -7 -50 -10
-80 -7 -70 -15 -136 -20 -175 -2 -16 -7 -57 -10 -90 -4 -33 -9 -73 -11 -90 -2
-16 -6 -52 -9 -80 -3 -27 -7 -66 -10 -85 -3 -19 -7 -57 -10 -85 -6 -53 -32
-276 -40 -335 -2 -19 -7 -60 -10 -90 -5 -54 -8 -73 -21 -175 -3 -27 -8 -66
-10 -85 -7 -72 -15 -146 -19 -170 -2 -14 -6 -52 -10 -85 -7 -70 -15 -140 -20
-175 -2 -14 -7 -56 -11 -95 -3 -38 -8 -79 -10 -90 -2 -10 -6 -49 -10 -85 -3
-36 -8 -74 -10 -85 -2 -11 -6 -45 -9 -75 -5 -58 -15 -144 -20 -171 -2 -8 -6
-48 -10 -88 -3 -40 -8 -80 -10 -89 -1 -9 -6 -46 -10 -82 -3 -36 -8 -76 -10
-90 -2 -14 -6 -50 -10 -80 -3 -30 -7 -68 -9 -85 -2 -16 -7 -59 -10 -95 -4 -36
-9 -76 -11 -90 -2 -14 -7 -50 -10 -80 -3 -30 -8 -71 -10 -90 -2 -19 -7 -60
-10 -90 -4 -30 -8 -66 -10 -80 -2 -14 -7 -50 -10 -80 -3 -30 -7 -71 -10 -90
-2 -19 -7 -60 -10 -90 -3 -30 -8 -71 -10 -90 -3 -19 -7 -55 -10 -80 -3 -25 -7
-61 -10 -81 -3 -20 -7 -56 -9 -80 -6 -69 -18 -164 -21 -167 -1 -1 -125 -4
-276 -6 -151 -3 -285 -7 -299 -9 -14 -3 -52 -8 -85 -11 -33 -3 -86 -10 -118
-16 -54 -8 -61 -7 -105 19 -63 37 -145 67 -207 76 -52 7 -165 8 -201 1 -12 -3
-37 -7 -56 -10 -68 -11 -204 -59 -293 -103 -227 -113 -423 -279 -610 -515 -20
-25 -26 -27 -255 -69 -90 -16 -206 -38 -230 -44 -14 -3 -52 -10 -85 -15 -33
-5 -69 -12 -80 -14 -11 -2 -69 -13 -130 -25 -60 -11 -120 -23 -131 -25 -12 -2
-37 -7 -55 -10 -58 -10 -93 -16 -124 -23 -16 -3 -39 -7 -50 -9 -11 -1 -67 -12
-125 -23 -58 -11 -123 -23 -145 -26 -22 -4 -56 -10 -75 -15 -19 -5 -53 -11
-75 -15 -49 -7 -81 -13 -103 -19 -9 -3 -33 -7 -52 -10 -34 -5 -221 -40 -269
-50 -25 -6 -75 -11 -196 -21 -38 -3 -83 -8 -100 -10 -95 -11 -132 -16 -151
-20 -12 -3 -39 -7 -60 -11 -21 -3 -70 -12 -109 -21 -38 -8 -81 -17 -95 -19
-22 -5 -107 -27 -300 -81 -58 -16 -77 -20 -125 -28 -16 -3 -41 -8 -55 -10 -14
-3 -36 -8 -50 -10 -38 -8 -150 25 -151 44 0 9 -3 11 -5 5 -3 -7 -42 -10 -117
-8 -92 2 -137 -3 -247 -26 -74 -15 -151 -30 -170 -33 -19 -3 -69 -12 -110 -20
-41 -8 -91 -18 -110 -21 -19 -3 -46 -8 -60 -11 -14 -3 -38 -8 -55 -10 -16 -3
-37 -8 -45 -10 -8 -2 -31 -7 -50 -10 -19 -3 -73 -13 -120 -21 -47 -9 -96 -18
-110 -21 -14 -2 -82 -15 -151 -29 -70 -13 -140 -26 -157 -29 -17 -2 -39 -6
-49 -9 -10 -3 -34 -8 -53 -11 -19 -3 -116 -21 -215 -40 -99 -19 -196 -37 -215
-40 -19 -3 -66 -12 -105 -20 -83 -16 -270 -52 -305 -59 -14 -2 -77 -14 -140
-26 -63 -12 -131 -24 -150 -26 -66 -8 -165 -44 -200 -73 -30 -25 -35 -35 -36
-78 -1 -26 2 -77 6 -113 5 -36 11 -103 15 -150 4 -47 8 -92 10 -100 2 -8 6
-53 9 -100 4 -47 9 -96 11 -110 4 -22 9 -73 20 -200 7 -76 20 -209 30 -305 2
-27 7 -77 10 -110 3 -33 8 -76 10 -95 4 -35 9 -85 20 -210 3 -36 8 -81 10
-100 3 -19 7 -62 10 -95 9 -116 15 -180 20 -215 2 -19 6 -60 9 -90 6 -63 15
-147 21 -205 2 -22 7 -71 10 -110 4 -38 8 -81 10 -95 2 -14 6 -59 10 -100 10
-120 15 -172 20 -215 2 -22 7 -67 10 -100 16 -169 33 -242 75 -324 15 -31 44
-75 65 -98 36 -42 123 -93 157 -93 13 0 18 -8 19 -32 0 -18 2 -44 4 -58 1 -14
6 -65 10 -115 3 -49 8 -103 10 -120 2 -16 7 -66 10 -110 3 -44 8 -101 11 -126
2 -25 6 -70 9 -100 12 -147 16 -188 20 -229 2 -25 8 -79 12 -120 4 -41 7 -120
7 -175 1 -55 4 -105 8 -111 8 -11 14 -60 23 -169 3 -38 8 -88 10 -110 4 -41
10 -113 20 -240 3 -38 8 -88 10 -110 9 -88 15 -153 20 -215 3 -36 7 -87 10
-115 3 -27 7 -77 10 -110 2 -33 7 -89 10 -125 l6 -65 -68 -71 c-97 -99 -127
-164 -127 -274 -1 -47 3 -116 7 -155 4 -38 10 -90 12 -115 5 -57 14 -136 19
-175 2 -16 7 -64 11 -105 3 -41 8 -82 10 -90 2 -8 7 -49 10 -90 3 -41 8 -82
10 -90 2 -8 6 -46 10 -85 3 -38 7 -81 10 -95 2 -14 7 -54 10 -90 3 -36 8 -76
10 -90 5 -29 11 -85 25 -235 14 -145 69 -590 77 -624 10 -42 32 -80 56 -96 28
-18 801 -256 1122 -345 107 -30 209 -59 517 -149 309 -90 356 -101 425 -101
127 0 241 33 324 92 17 12 77 -3 1399 -337 1173 -297 2052 -520 3495 -885 407
-103 862 -218 1011 -256 l272 -69 -72 -26 c-82 -30 -181 -76 -246 -115 -62
-36 -164 -107 -168 -116 -2 -5 -8 -8 -14 -8 -5 0 -15 -6 -22 -13 -7 -6 -28
-23 -47 -37 -248 -184 -510 -534 -630 -839 -72 -187 -99 -325 -94 -496 4 -123
7 -143 36 -229 43 -127 133 -242 235 -302 27 -16 55 -34 62 -41 23 -23 100
-73 111 -73 6 0 11 -3 11 -7 0 -5 15 -16 33 -27 66 -37 177 -96 182 -96 3 0 6
0 8 -1 1 0 13 -2 27 -5 18 -3 21 -1 10 5 -8 5 -18 8 -22 8 -4 -1 -14 7 -23 18
l-15 20 6 -20 c6 -18 4 -17 -10 3 -10 12 -21 20 -26 17 -5 -3 -17 6 -28 20
-11 13 -21 22 -24 20 -2 -3 -24 17 -49 42 -24 26 -35 40 -23 30 13 -10 24 -13
30 -7 6 6 22 -3 44 -23 19 -18 69 -60 110 -93 63 -51 83 -62 126 -68 39 -5 54
-3 64 8 17 22 3 41 -18 24 -10 -7 -14 -9 -10 -4 7 8 -67 70 -84 71 -3 0 -10 4
-15 9 -4 5 -3 6 3 3 7 -4 14 0 17 7 4 11 0 13 -15 11 -12 -3 -27 3 -34 13 -7
9 -14 13 -14 8 0 -5 -6 -3 -14 4 -8 6 -12 18 -9 26 4 11 9 9 22 -8 12 -15 20
-18 25 -10 4 7 1 12 -8 12 -9 0 -16 5 -16 10 0 13 17 13 26 -1 3 -6 58 -49
122 -96 l115 -86 66 12 c36 6 71 12 78 13 7 1 10 4 8 8 -2 4 9 7 25 8 16 0 35
4 42 9 7 4 22 9 33 10 10 2 22 8 26 14 4 6 21 13 38 15 17 2 46 11 64 21 17 9
35 16 40 15 4 -1 7 2 7 8 0 5 9 10 20 10 21 0 69 26 82 45 5 6 8 6 8 0 0 -5 5
-2 11 8 6 9 15 15 20 11 11 -6 109 53 109 67 0 5 6 9 13 9 19 0 108 65 100 73
-3 4 1 7 10 7 9 0 34 17 57 38 22 22 40 37 40 34 0 -3 9 3 21 14 17 16 22 16
29 4 6 -8 10 -18 10 -21 0 -24 155 -149 184 -149 9 0 16 -4 16 -8 0 -5 19 -17
43 -26 23 -10 61 -26 85 -37 23 -10 51 -19 62 -19 10 0 21 -4 24 -9 5 -7 44
-18 96 -26 3 0 10 -3 15 -6 10 -7 66 -21 95 -24 8 -1 35 -7 59 -14 23 -7 45
-10 48 -7 3 3 13 1 23 -4 9 -5 40 -11 68 -14 28 -2 55 -7 59 -9 5 -3 44 -8 88
-12 44 -4 96 -9 115 -11 19 -2 85 -6 147 -8 62 -2 116 -6 120 -8 11 -6 43 -3
71 6 12 4 22 4 22 -1 0 -13 103 -8 108 5 2 7 8 12 13 12 6 0 7 -4 4 -10 -7
-11 2 -13 60 -10 22 1 42 6 43 11 2 5 8 9 13 9 6 0 7 -4 4 -10 -4 -6 14 -9 49
-7 31 1 56 4 56 7 0 3 27 5 60 4 33 -1 60 2 60 5 0 4 19 7 43 7 40 1 115 10
167 20 14 2 43 7 65 10 22 3 49 8 60 11 11 4 25 7 30 8 51 5 105 19 105 27 0
5 4 7 9 3 6 -3 38 4 73 15 35 11 87 27 116 36 28 10 52 21 52 26 0 4 3 7 8 6
12 -4 106 34 114 46 4 6 12 12 18 12 5 1 15 2 21 3 5 0 7 6 4 11 -4 6 -2 9 3
8 6 -2 20 4 33 12 35 24 121 111 115 117 -3 3 1 12 9 20 18 17 16 1 21 228 2
99 4 203 5 230 1 31 -5 63 -15 84 -21 40 -113 131 -132 131 -8 0 -14 4 -14 9
0 15 -173 93 -288 130 l-114 36 5 84 c4 46 8 86 11 88 2 2 26 -12 53 -33 26
-20 64 -44 83 -52 30 -12 223 -66 545 -152 39 -10 473 -127 965 -260 927 -250
1368 -369 1398 -375 9 -2 59 -16 110 -30 51 -14 97 -23 101 -20 5 3 11 1 13
-4 2 -7 205 -65 408 -117 364 -93 566 -74 855 80 125 67 997 560 1703 963 271
154 304 171 309 153 3 -11 9 -20 14 -20 5 0 9 -7 9 -16 0 -20 99 -209 125
-239 11 -12 21 -28 23 -35 4 -18 129 -179 171 -221 89 -87 194 -158 240 -162
12 -1 21 -5 21 -9 0 -4 3 -7 8 -7 4 1 9 0 12 -1 44 -18 227 -15 370 5 19 3 63
8 97 10 285 22 511 326 580 780 2 17 7 41 10 55 9 43 11 456 2 505 -5 25 -11
67 -15 93 -3 26 -8 56 -10 67 -3 11 -7 36 -10 55 -8 48 -51 212 -76 288 -11
35 -18 65 -16 67 3 3 121 70 413 235 66 37 138 78 160 90 22 12 96 54 165 93
69 38 128 71 132 73 4 3 105 6 225 8 233 3 286 12 362 61 94 60 1423 871 1471
898 139 75 233 179 265 292 15 54 24 201 40 705 3 96 8 216 10 265 2 50 7 176
10 280 3 105 8 231 10 280 5 110 16 433 17 496 1 104 -71 242 -199 378 -31 33
-32 37 -28 105 5 94 15 296 20 426 2 58 7 159 10 225 6 120 9 198 20 440 3 72
8 168 10 215 2 47 7 144 10 215 3 72 8 171 10 220 2 50 7 146 10 215 3 69 7
168 10 220 2 52 7 160 11 240 6 135 11 239 13 267 1 7 7 10 15 7 24 -9 102 32
149 78 46 47 98 143 112 208 1 3 4 19 8 35 7 29 10 100 22 415 3 85 8 208 10
273 3 66 7 180 10 255 3 76 7 189 10 252 7 176 15 383 20 505 2 61 6 178 10
260 3 83 8 193 10 245 2 52 7 181 11 285 9 218 9 299 1 336 -9 45 -64 146
-112 210 l-47 59 42 -21 c82 -43 190 -55 295 -33 114 24 576 228 822 363 271
149 533 322 740 489 116 94 123 110 118 257 -2 61 -5 119 -8 130 -3 14 9 32
42 60 183 161 468 475 630 695 34 47 68 92 74 100 25 31 186 278 224 345 23
39 51 88 64 110 26 45 208 403 208 410 1 3 8 22 17 43 22 52 95 229 99 242 1
3 4 12 8 20 48 118 171 515 192 620 2 8 12 51 23 95 11 44 28 116 36 160 9 44
18 91 21 105 7 34 14 75 19 108 12 78 19 119 22 137 2 11 7 40 10 65 3 25 7
55 9 68 2 13 7 53 11 90 3 37 8 76 10 86 2 10 6 55 9 100 4 45 8 95 10 111 23
181 23 873 0 1030 -2 17 -6 59 -9 95 -13 147 -30 264 -81 545 -9 55 -26 132
-36 169 -6 23 -13 52 -16 66 -21 121 -166 554 -243 726 -70 157 -90 200 -144
304 -158 308 -367 617 -594 881 l-98 115 13 49 c18 71 26 177 18 231 -5 39
-16 55 -73 112 -89 88 -251 233 -357 317 -27 22 -52 43 -55 46 -3 3 -70 52
-150 110 -163 118 -263 184 -415 276 -263 159 -656 351 -885 431 l-85 30
-1070 -2 -1070 -1 -33 -23 c-39 -28 -78 -101 -96 -180 l-13 -57 -449 2 c-431
1 -1096 6 -2564 19 -377 3 -788 6 -915 7 l-230 2 -22 47 c-31 64 -106 118
-186 133 -39 8 -43 14 -11 19 19 3 28 28 37 93 6 46 45 299 52 332 2 13 7 49
11 80 3 31 8 59 10 62 1 3 6 28 10 55 3 27 8 58 10 69 2 11 7 40 10 65 3 25 7
52 9 60 3 18 15 95 20 130 7 46 55 354 65 410 5 30 12 75 15 100 3 25 10 70
15 100 12 69 17 104 25 155 3 23 7 50 9 62 3 12 8 43 11 70 4 26 13 85 20 129
27 158 29 180 29 244 -1 49 -8 80 -28 124 -80 175 -199 292 -379 376 -122 56
-245 83 -434 96 -54 3 -110 7 -125 9 -15 1 -29 1 -30 0z m12 -712 c32 -35 32
-38 26 -102 -4 -36 -11 -82 -16 -101 -5 -19 -11 -51 -13 -70 -3 -19 -14 -84
-25 -145 -26 -133 -32 -166 -77 -430 -3 -16 -8 -41 -10 -55 -9 -44 -13 -67
-19 -101 -3 -19 -12 -70 -21 -114 -8 -44 -18 -100 -21 -125 -3 -25 -8 -48 -10
-51 -2 -4 -6 -24 -9 -45 -3 -22 -10 -63 -15 -93 -6 -30 -10 -55 -10 -55 0 -1
-57 -1 -126 -1 l-126 0 5 30 c2 16 45 235 96 485 51 250 95 466 97 480 6 29
40 202 48 240 3 14 12 54 19 90 19 86 31 113 65 149 57 60 99 64 142 14z
m-7657 -11380 c-13 -2 -33 -2 -45 0 -13 2 -3 4 22 4 25 0 35 -2 23 -4z m754
-12168 c12 -3 30 -8 42 -10 11 -2 48 -11 83 -20 35 -9 79 -20 98 -25 19 -5 59
-16 89 -24 30 -8 58 -13 63 -10 4 3 8 0 8 -5 0 -6 3 -10 8 -9 4 1 30 -3 57
-10 28 -7 59 -14 70 -17 44 -10 111 -27 125 -33 8 -3 24 -6 35 -7 11 -1 27 -5
35 -8 8 -4 44 -14 80 -22 129 -32 146 -36 183 -46 56 -15 44 -27 -20 -21 -116
12 -675 5 -728 -8 -23 -6 -35 2 -58 43 -14 24 -71 86 -126 139 -56 53 -101 99
-101 102 0 4 8 5 18 2 9 -2 27 -7 39 -11z m2025 -511 c57 -15 84 -21 98 -23 3
-1 1 -25 -4 -54 l-10 -54 -40 41 c-23 23 -58 52 -78 66 -21 14 -38 28 -38 33
0 9 -1 10 72 -9z m7278 -559 c7 -9 8 -15 2 -15 -5 0 -12 7 -16 15 -3 8 -4 15
-2 15 2 0 9 -7 16 -15z m71 -69 c8 4 9 3 5 -4 -6 -10 4 -16 25 -14 3 1 6 -6 6
-14 0 -7 -3 -12 -5 -9 -3 3 -12 -1 -21 -8 -14 -11 -14 -10 -2 6 13 17 8 21
-20 19 -3 0 -11 9 -19 21 -12 20 -12 21 3 9 9 -8 22 -10 28 -6z m168 -115 c-6
-2 -18 4 -27 13 -15 15 -15 15 10 4 15 -7 23 -15 17 -17z m-39 1 c6 -7 7 -10
4 -7 -4 2 -15 0 -25 -6 -19 -10 -67 6 -55 18 3 3 12 0 21 -7 9 -7 19 -10 22
-6 4 4 1 11 -7 17 -12 7 -10 8 8 6 12 -2 27 -9 32 -15z m-9938 -253 c32 -13
58 -26 58 -29 0 -3 -12 -6 -27 -7 -15 0 -21 2 -14 7 9 5 6 9 -10 13 -13 3 -30
1 -38 -6 -14 -11 -14 -10 -2 6 7 9 11 17 8 17 -3 0 -13 3 -23 7 -14 5 -16 3
-11 -11 4 -11 3 -15 -4 -11 -6 4 -8 13 -5 20 3 8 2 16 -2 18 -16 9 17 -2 70
-24z m-110 -80 c18 -12 26 -19 17 -16 -9 3 -22 0 -28 -6 -9 -9 -11 -8 -6 6 7
16 -9 25 -18 10 -2 -5 -2 -2 -1 5 2 6 -1 12 -6 12 -6 0 -10 -5 -10 -12 0 -6
-3 -9 -6 -5 -8 7 4 27 16 27 5 0 24 -9 42 -21z m-108 -74 c11 -8 14 -15 8 -15
-19 0 -27 4 -24 14 2 5 -4 6 -13 2 -9 -3 -13 -2 -10 4 8 13 16 12 39 -5z m-84
-70 l25 -14 -27 1 c-15 1 -24 7 -21 12 4 5 -1 7 -11 3 -10 -4 -15 -3 -11 3 8
13 15 12 45 -5z m-75 -103 c-3 -9 1 -11 13 -8 10 4 26 0 36 -7 17 -12 17 -14
3 -20 -10 -4 -16 -2 -14 5 1 6 -4 13 -12 16 -9 3 -11 0 -6 -8 6 -9 3 -9 -14 0
-12 6 -19 15 -16 21 6 8 -8 13 -28 10 -5 -1 -5 4 -1 10 5 8 2 10 -8 7 -8 -4
-15 -1 -15 7 0 10 8 9 33 -4 20 -9 32 -22 29 -29z m-65 -88 c8 -6 33 -21 55
-33 22 -12 33 -20 24 -17 -9 2 -22 -1 -28 -7 -9 -9 -11 -8 -6 6 4 10 2 17 -4
17 -6 0 -11 -4 -11 -10 0 -5 -5 -10 -11 -10 -8 0 -7 6 2 16 12 15 11 16 -10 9
-20 -6 -23 -4 -18 9 6 15 -4 21 -26 17 -5 -1 -5 4 -1 10 4 7 2 10 -7 7 -8 -3
-12 -12 -11 -19 2 -8 0 -10 -5 -6 -4 5 -9 13 -9 18 -1 5 -2 13 -3 19 0 5 -9 7
-18 4 -15 -5 -16 -4 -3 5 10 7 11 11 3 11 -24 0 -28 -2 -25 -13 2 -6 -4 -5
-12 3 -17 14 -22 25 -7 15 5 -3 12 -1 16 5 6 9 77 -25 115 -56z m-115 -64 c86
-53 93 -59 67 -57 -11 0 -18 5 -15 11 4 5 -1 7 -10 3 -10 -4 -16 -2 -14 5 1 6
-4 13 -12 16 -9 3 -11 0 -7 -9 4 -8 -1 -4 -12 8 -11 12 -22 19 -26 16 -3 -4
-6 -1 -6 6 0 7 -5 9 -12 5 -7 -4 -8 -3 -4 4 7 11 -6 17 -27 13 -5 -1 -6 3 -2
9 3 5 1 10 -4 10 -6 0 -11 -5 -11 -12 0 -6 -6 -3 -14 7 -19 27 -9 39 17 22 12
-8 54 -33 92 -57z m-237 10 c-2 -5 2 -9 7 -7 6 1 9 6 7 10 -3 11 40 -15 129
-76 63 -43 74 -54 63 -65 -9 -8 -14 -9 -14 -2 0 6 -6 8 -12 4 -9 -5 -9 -2 1 9
16 20 2 23 -18 5 -11 -10 -13 -10 -7 0 7 11 -5 17 -27 13 -5 -1 -6 3 -2 9 5 9
-7 14 -27 11 -4 0 -5 8 -3 19 2 11 0 20 -6 20 -5 0 -9 -6 -9 -12 0 -10 -2 -10
-9 0 -4 8 -12 14 -17 15 -5 1 -8 8 -8 15 1 7 -3 11 -10 9 -6 -3 -10 -10 -8
-17 2 -10 -1 -10 -15 1 -25 19 -33 32 -27 41 7 11 14 10 12 -2z m-39 -90 c44
-33 97 -70 116 -82 24 -13 33 -24 27 -30 -12 -12 -35 0 -26 13 3 6 -2 9 -12 7
-12 -2 -18 2 -16 11 2 8 -3 11 -12 8 -9 -4 -21 2 -29 13 -8 11 -17 17 -21 12
-4 -4 -6 0 -4 8 2 8 -4 15 -12 15 -23 1 -41 15 -34 27 4 6 1 9 -7 6 -17 -6
-71 30 -64 43 9 13 8 14 94 -51z m-272 24 c-3 -3 -12 -4 -19 -1 -8 3 -5 6 6 6
11 1 17 -2 13 -5z"/>
<path d="M11200 1942 c0 -5 7 -9 15 -9 8 0 12 4 9 9 -3 4 -9 8 -15 8 -5 0 -9
-4 -9 -8z"/>
<path d="M11280 1896 c0 -3 9 -10 20 -16 11 -6 20 -8 20 -6 0 3 -9 10 -20 16
-11 6 -20 8 -20 6z"/>
<path d="M11020 1937 c0 -3 12 -12 26 -22 15 -9 23 -12 20 -6 -7 11 -46 35
-46 28z"/>
<path d="M10711 1874 c12 -13 25 -21 29 -19 4 3 15 -7 25 -21 9 -14 19 -23 22
-20 4 3 13 0 22 -6 10 -8 9 -4 -3 10 -11 12 -21 20 -24 18 -2 -3 -17 10 -33
28 -15 18 -35 33 -44 33 -12 0 -11 -5 6 -23z m20 -1 c13 -16 12 -17 -3 -4 -10
7 -18 15 -18 17 0 8 8 3 21 -13z"/>
<path d="M10895 1880 c-3 -5 -5 -10 -3 -11 33 -8 38 -7 27 7 -14 17 -16 17
-24 4z"/>
<path d="M10946 1841 c-7 -11 54 -62 66 -55 11 7 2 19 -32 44 -16 11 -31 16
-34 11z"/>
<path d="M11024 1779 c-4 -7 -3 -9 3 -6 6 4 16 0 23 -8 10 -12 10 -18 1 -29
-10 -12 -7 -15 19 -14 44 1 44 9 0 41 -27 19 -41 24 -46 16z m60 -37 c3 -5 -1
-9 -9 -9 -8 0 -12 4 -9 9 3 4 7 8 9 8 2 0 6 -4 9 -8z"/>
</g>
</svg>
